# xmcd
#
# Track frame offsets:
# 150
# 10328
# 24268
# 38570
# 52426
# 67675
# 79608
# 90873
# 109438
# 122152
# 136092
# 148973
# 165337
# 177382
# 190709
# 204760
# 220288
# 233531
# 244963
# 257788
#
# Disc length: 3587 seconds
#
#
# Revision: 0
# Processed by: cddbd v1.5.1PL0 Copyright (c) Steve Scherf et al.
# Submitted via: FreeRIP 2.90 
#
DISCID=0a0e0114
DTITLE=Teodoro e Sampaio - AS 20 Mais
DYEAR=2004
DGENRE=Country
TTITLE0=QUEM TEM - TEM MEDO
TTITLE1=PINGA NE MIM
TTITLE2=A Gostosona
TTITLE3=Machucado de  Paixão
TTITLE4=Bão Tamem
TTITLE5=Estrela Caída
TTITLE6=Cheira Chumbo
TTITLE7=Delícias de Amor
TTITLE8=Velho Galã
TTITLE9=Casaco Verde
TTITLE10=tudo Ela quer eu dou
TTITLE11=A Canção que Lembra voce
TTITLE12=Espora Do Amor
TTITLE13=O Pau Quebrou
TTITLE14=A Rabada Da Cunhada
TTITLE15=Chuva De Amor
TTITLE16=Se a Casa Cair
TTITLE17=Passe Livre
TTITLE18=Amando Escondido
TTITLE19=Garanhão da Madrugada
EXTD=By Guile    17/11
EXTT0=
EXTT1=
EXTT2=
EXTT3=
EXTT4=
EXTT5=
EXTT6=
EXTT7=
EXTT8=
EXTT9=
EXTT10=
EXTT11=
EXTT12=
EXTT13=
EXTT14=
EXTT15=
EXTT16=
EXTT17=
EXTT18=
EXTT19=
PLAYORDER=
